<svg width="1990" height="1990" viewBox="0 0 1990 1990" fill="none" xmlns="http://www.w3.org/2000/svg">
<circle cx="995.006" cy="995.006" r="601.006" fill="url(#paint0_linear_63_70)"/>
<g filter="url(#filter0_d_63_70)">
<circle cx="995.006" cy="995.006" r="601.006" fill="url(#paint1_linear_63_70)"/>
</g>
<circle cx="995.009" cy="1001.23" r="495.129" fill="url(#paint2_linear_63_70)"/>
<path d="M1009.92 1094.08C1056.78 1094.08 1081.59 1149.5 1050.38 1184.45L1046.16 1189.18C1024.76 1213.14 987.328 1213.35 965.657 1189.63L961.343 1184.91C929.542 1150.09 954.24 1094.08 1001.39 1094.08H1009.92ZM731.399 908.345C763.924 908.345 834.402 966.97 833.345 999.478L833.121 1006.42C832.911 1012.89 830.9 1019.18 827.201 1024.5C800.954 1062.2 766.854 1102 731.399 1102C696.988 1102 663.852 1064.51 637.934 1027.83C632.741 1020.48 630.691 1011.39 631.938 1002.48L632.201 1000.6C636.741 968.169 698.651 908.345 731.399 908.345ZM1233.38 901.659C1265.9 901.66 1336.38 960.285 1335.32 992.792L1335.1 999.733C1334.89 1006.21 1332.88 1012.5 1329.18 1017.81C1302.93 1055.52 1268.83 1095.31 1233.38 1095.31C1198.97 1095.31 1165.83 1057.82 1139.91 1021.14C1134.72 1013.79 1132.67 1004.71 1133.91 995.794L1134.18 993.915C1138.72 961.483 1200.63 901.659 1233.38 901.659Z" fill="#D9D9D9"/>
<path d="M895.505 595.796C895.505 670.807 812.042 752.265 734.218 752.265C656.393 752.265 593.304 691.456 593.304 616.444C593.304 541.433 710.721 468.739 788.546 468.739C866.37 468.739 895.505 520.784 895.505 595.796Z" fill="white" fill-opacity="0.4"/>
<ellipse cx="531.556" cy="915.989" rx="62.817" ry="79.7946" fill="white" fill-opacity="0.4"/>
<rect x="676" y="964" width="66.6201" height="9.74884" fill="#29D552"/>
<rect x="676" y="985.272" width="44.7341" height="9.74884" fill="#29D552"/>
<rect x="724.581" y="985.261" width="29.1012" height="9.74884" fill="#29D552"/>
<rect x="758.975" y="985.261" width="18.0379" height="9.74884" fill="#29D552"/>
<rect width="17.8306" height="9.63678" transform="matrix(-1 0 0 1 780.129 1027.68)" fill="#29D552"/>
<rect width="41.6047" height="9.63678" transform="matrix(-1 0 0 1 755.646 1027.68)" fill="#29D552"/>
<rect width="30.6686" height="9.63678" transform="matrix(-1 0 0 1 708.807 1027.68)" fill="#29D552"/>
<rect width="56.3447" height="9.63678" transform="matrix(-1 0 0 1 732.345 1006.53)" fill="#29D552"/>
<rect width="56.3447" height="9.63678" transform="matrix(-1 0 0 1 791.068 1006.53)" fill="#29D552"/>
<rect x="1177" y="964" width="66.6201" height="9.74884" fill="#29D552"/>
<rect x="1177" y="985.272" width="44.7341" height="9.74884" fill="#29D552"/>
<rect x="1225.58" y="985.261" width="29.1012" height="9.74884" fill="#29D552"/>
<rect x="1259.97" y="985.261" width="18.0379" height="9.74884" fill="#29D552"/>
<rect width="17.8306" height="9.63678" transform="matrix(-1 0 0 1 1281.13 1027.68)" fill="#29D552"/>
<rect width="41.6047" height="9.63678" transform="matrix(-1 0 0 1 1256.65 1027.68)" fill="#29D552"/>
<rect width="30.6686" height="9.63678" transform="matrix(-1 0 0 1 1209.81 1027.68)" fill="#29D552"/>
<rect width="56.3447" height="9.63678" transform="matrix(-1 0 0 1 1233.35 1006.53)" fill="#29D552"/>
<rect width="56.3447" height="9.63678" transform="matrix(-1 0 0 1 1292.07 1006.53)" fill="#29D552"/>
<defs>
<filter id="filter0_d_63_70" x="0.120255" y="0.120255" width="1989.77" height="1989.77" filterUnits="userSpaceOnUse" color-interpolation-filters="sRGB">
<feFlood flood-opacity="0" result="BackgroundImageFix"/>
<feColorMatrix in="SourceAlpha" type="matrix" values="0 0 0 0 0 0 0 0 0 0 0 0 0 0 0 0 0 0 127 0" result="hardAlpha"/>
<feMorphology radius="105.261" operator="dilate" in="SourceAlpha" result="effect1_dropShadow_63_70"/>
<feOffset/>
<feGaussianBlur stdDeviation="144.309"/>
<feComposite in2="hardAlpha" operator="out"/>
<feColorMatrix type="matrix" values="0 0 0 0 0.866667 0 0 0 0 0.956863 0 0 0 0 0.380392 0 0 0 0.42 0"/>
<feBlend mode="normal" in2="BackgroundImageFix" result="effect1_dropShadow_63_70"/>
<feBlend mode="normal" in="SourceGraphic" in2="effect1_dropShadow_63_70" result="shape"/>
</filter>
<linearGradient id="paint0_linear_63_70" x1="995.006" y1="394" x2="995.006" y2="1596.01" gradientUnits="userSpaceOnUse">
<stop stop-color="#DDF461"/>
<stop offset="1" stop-color="#00CD4F"/>
</linearGradient>
<linearGradient id="paint1_linear_63_70" x1="995.006" y1="394" x2="995.006" y2="1596.01" gradientUnits="userSpaceOnUse">
<stop stop-color="#DDF461"/>
<stop offset="1" stop-color="#00CD4F"/>
</linearGradient>
<linearGradient id="paint2_linear_63_70" x1="995.009" y1="506.104" x2="995.009" y2="1496.36" gradientUnits="userSpaceOnUse">
<stop stop-color="#00BCA8"/>
<stop offset="1" stop-color="#009296"/>
</linearGradient>
</defs>
</svg>
